<svg height="48" alt="Logo" xmlns="http://www.w3.org/2000/svg" viewBox="0 0 115 27" class="c-icon c-icon-custom-size" role="img">
  <title>Linqpal</title>
  <g style="fill:#2F4858">
    <path d="M108.038 13.7308C107.976 13.42 107.851 13.1091 107.727 12.7983C107.541 12.3632 107.354 11.9281 107.105 11.4929C105.427 8.63347 102.319 6.64429 98.8378 6.64429C93.4919 6.64429 89.2027 11.12 89.2027 16.6524C89.2027 22.1848 93.554 26.6605 98.8378 26.6605C101.449 26.6605 103.811 25.6038 105.551 23.801V26.7227H108.473V16.6524C108.473 15.6578 108.349 14.6632 108.038 13.7308ZM98.8378 23.6767C95.1081 23.6767 92.1243 20.5686 92.1243 16.7146C92.1243 12.8605 95.1081 9.7524 98.8378 9.7524C102.568 9.7524 105.551 12.8605 105.551 16.7146C105.551 20.5065 102.568 23.6767 98.8378 23.6767Z"></path>
        <path d="M86.1567 16.7145C86.1567 16.7767 86.1567 16.7767 86.1567 16.8388C86.0946 22.3091 81.8054 26.7226 76.5216 26.7226C73.9108 26.7226 71.5486 25.6659 69.8081 23.8632V26.7848H66.8865V16.7145H69.8081C69.8081 20.5686 72.7919 23.6767 76.5216 23.6767C80.2513 23.6767 83.2351 20.5686 83.2351 16.7145C83.2351 12.8605 80.2513 9.75236 76.5216 9.75236V6.70642C80.0027 6.70642 83.1108 8.63344 84.7892 11.5551C85.0378 11.9902 85.2243 12.4253 85.4108 12.8605C85.5351 13.1713 85.6594 13.4821 85.7216 13.7929C86.0324 14.6632 86.1567 15.6578 86.1567 16.7145Z"></path>
        <path d="M18.773 6.70642H15.8514V26.7848H18.773V6.70642Z"></path>
        <path d="M115 0.552368H112.078V26.7848H115V0.552368Z"></path>
        <path d="M13.3027 23.8632V26.7848H0V0.552368H2.92161V23.8632H13.3027Z"></path>
        <path d="M41.3378 16.7145V26.7848H38.4162V16.7145C38.4162 12.8605 35.4324 9.75236 31.7027 9.75236C27.973 9.75236 24.9892 12.8605 24.9892 16.7145V26.7848H22.0676V16.7145C22.0676 11.1821 26.4189 6.70642 31.7649 6.70642C35.2459 6.70642 38.354 8.63344 40.0324 11.5551C40.2811 11.9902 40.4676 12.4253 40.6541 12.8605C40.7784 13.1713 40.9027 13.4821 40.9649 13.7929C41.1513 14.6632 41.3378 15.6578 41.3378 16.7145Z"></path>
        <path d="M61.727 22.247C62.7216 20.693 63.3433 18.8281 63.3433 16.7767C63.3433 16.7146 63.3433 16.7146 63.3433 16.6524C63.3433 15.5957 63.2189 14.6011 62.9081 13.6686C62.846 13.3578 62.7216 13.047 62.5973 12.7362C62.4108 12.3011 62.2243 11.8659 61.9757 11.4308C60.2973 8.57135 57.1892 6.58215 53.7081 6.58215C48.3622 6.58215 44.073 11.0578 44.073 16.5903C44.073 22.1227 48.4243 26.5984 53.7081 26.5984C56.0081 26.5984 58.1216 25.7903 59.8 24.3605L62.1 26.6605L64.1514 24.6092L61.727 22.247ZM53.7081 23.6767C49.9784 23.6767 46.9946 20.5687 46.9946 16.7146C46.9946 12.8605 50.0406 9.75243 53.7081 9.75243C57.4379 9.75243 60.4216 12.8605 60.4216 16.7146C60.4216 17.9578 60.1108 19.1389 59.5514 20.1335L57.0027 17.5849L55.0135 19.7605L57.6243 22.3713C56.5676 23.1794 55.2 23.6767 53.7081 23.6767Z"></path>
        <path d="M68.5027 15.4714C68.5027 11.6173 71.4865 8.5092 75.2163 8.5092V5.46326C69.8703 5.46326 65.5811 9.93894 65.5811 15.4714H68.5027Z" style="fill:#DD4A2C"></path>
        <path d="M19.2081 2.16862C19.2081 3.28754 18.4 4.15782 17.3433 4.15782C16.2865 4.15782 15.4784 3.28754 15.4784 2.16862C15.4784 1.0497 16.2865 0.179443 17.3433 0.179443C18.4 0.179443 19.2081 0.98754 19.2081 2.16862Z"></path>
  </g>
</svg>